<svg
  xmlns="http://www.w3.org/2000/svg"
  height="1024"
  role="img"
  viewBox="0 0 1024 1024"
  width="1024"
>
  <title>Harmonius controller mark</title>
  <desc>
    Vectorized from the selected raster source with transparent outside and gaps.
  </desc>
  <g id="controller-mark" transform="translate(0 1024) scale(0.1 -0.1)">
    <path
      id="upper-bridge"
      fill="#8b947d"
      d="
        M2930 7880 c-210 -45 -377 -138 -559 -314 -139 -135 -258 -299 -374 -516 -65 -123 -157
        -346 -157 -382 0 -14 7 -31 15 -38 8 -6 76 -20 152 -31 76 -10 176 -26 223 -35 151 -27 400
        -95 594 -161 458 -156 806 -318 1361 -632 284 -161 417 -228 525 -264 109 -37 191 -50 310
        -50 126 0 237 24 366 80 103 45 184 92 454 265 275 176 463 285 705 409 326 167 623 288
        915 373 85 25 198 55 250 66 158 35 337 60 484 67 118 5 142 9 158 25 13 13 17 26 13 41 -4
        12 -47 103 -95 202 -132 269 -250 437 -419 597 -50 48 -132 114 -182 147 -167 110 -321 160
        -520 168 -92 4 -152 1 -225 -11 -126 -21 -327 -89 -492 -164 -71 -32 -214 -107 -318 -167
        -307 -177 -413 -233 -522 -275 -56 -23 -137 -50 -180 -60 -114 -29 -254 -43 -368 -36 -195
        11 -338 53 -549 161 -77 39 -210 113 -295 165 -374 225 -631 335 -875 375 -121 20 -289 18
        -395 -5z
      "
    />
    <path
      id="left-grip"
      fill="#cb7747"
      d="
        M1825 6385 c-5 -2 -22 -6 -37 -9 -41 -9 -89 -65 -102 -121 -2 -5 -6 -17 -9 -25 -16 -37 -36
        -100 -32 -100 3 0 -1 -17 -9 -37 -8 -21 -18 -51 -22 -68 -4 -16 -8 -34 -10 -40 -2 -5 -6
        -21 -9 -35 -3 -14 -8 -32 -10 -40 -3 -8 -10 -37 -16 -65 -5 -27 -14 -63 -19 -80 -14 -45
        -22 -86 -27 -130 -2 -22 -8 -49 -13 -60 -5 -11 -11 -38 -14 -60 -3 -22 -12 -69 -20 -105 -9
        -36 -15 -83 -16 -106 0 -23 -4 -54 -10 -70 -5 -16 -11 -51 -14 -79 -3 -27 -10 -99 -16 -159
        -6 -59 -12 -111 -14 -115 -2 -3 -8 -71 -12 -151 -13 -205 -10 -766 4 -880 11 -85 16 -127
        37 -280 4 -24 8 -47 11 -51 2 -4 6 -24 9 -45 3 -22 8 -46 11 -54 3 -8 8 -26 10 -40 16 -87
        65 -239 106 -330 41 -91 121 -245 130 -248 4 -2 8 -10 8 -18 0 -8 4 -14 8 -14 4 0 16 -14
        26 -31 10 -18 26 -39 35 -49 9 -9 30 -32 46 -51 41 -46 122 -114 165 -139 69 -39 180 -85
        180 -75 0 3 9 1 20 -5 29 -15 230 -15 301 1 32 7 59 17 59 22 0 4 4 6 9 3 11 -7 144 58 161
        79 7 8 18 15 25 15 13 0 126 98 170 149 102 117 147 174 182 227 7 11 28 43 48 73 19 29 35
        56 35 59 0 3 7 14 17 24 9 10 21 27 27 37 6 10 30 52 54 92 24 41 52 88 62 104 11 17 23 37
        27 45 3 8 9 17 13 20 3 3 40 57 80 120 41 63 78 117 82 120 4 3 13 17 20 31 8 15 32 48 53
        75 67 82 234 249 276 275 21 13 39 27 39 30 0 7 28 25 110 72 87 50 117 65 140 72 14 4 43
        16 65 26 40 18 126 46 290 93 50 15 108 32 130 39 22 6 42 12 45 12 15 2 98 46 117 63 20
        18 43 53 82 127 13 24 16 62 16 181 0 113 -3 155 -14 167 -7 10 -11 17 -8 17 9 0 -51 131
        -68 150 -70 78 -142 150 -150 150 -6 0 -16 9 -23 20 -7 11 -17 20 -23 20 -5 0 -20 9 -32 21
        -12 11 -46 34 -75 51 -29 16 -66 41 -81 54 -16 13 -56 37 -89 54 -33 16 -73 40 -88 53 -29
        23 -174 109 -216 127 -25 11 -60 32 -68 41 -3 3 -48 28 -100 55 -52 27 -97 52 -100 55 -8 9
        -362 185 -390 194 -14 4 -32 13 -40 19 -8 7 -46 25 -85 41 -38 15 -103 43 -143 61 -41 19
        -77 34 -80 34 -8 0 -158 57 -182 69 -8 4 -55 20 -105 35 -49 16 -104 35 -122 42 -17 8 -38
        14 -47 14 -8 0 -25 4 -38 9 -43 17 -181 54 -288 77 -36 7 -112 21 -210 38 -76 13 -219 20
        -245 11z
      "
    />
    <path
      id="right-grip"
      fill="#444547"
      d="
        M8155 6504 c-232 -18 -478 -71 -757 -165 -513 -171 -992 -415 -1566 -796 -307 -203 -460
        -331 -541 -453 -80 -119 -106 -230 -98 -416 5 -133 21 -190 68 -247 17 -21 56 -49 92 -66
        38 -17 137 -45 252 -71 432 -94 631 -192 861 -424 66 -66 157 -170 201 -231 45 -60 128
        -185 184 -279 152 -248 279 -445 346 -533 79 -106 215 -240 303 -298 134 -89 293 -133 442
        -122 42 4 113 18 159 33 45 15 114 49 153 75 89 59 199 171 266 272 60 91 135 246 178 369
        36 101 85 294 107 423 39 225 48 365 49 720 1 356 -8 510 -45 810 -36 294 -102 628 -180
        912 -46 170 -104 343 -130 395 -21 41 -50 64 -97 77 -38 11 -181 20 -247 15z
      "
    />
  </g>
</svg>
